<svg width="1440" height="1089" viewBox="0 0 1440 1089" fill="none" xmlns="http://www.w3.org/2000/svg">
<g clip-path="url(#clip0_321_11133)">
<rect width="1440" height="1089" fill="#03B4FA"/>
<g clip-path="url(#clip1_321_11133)">
<rect width="1440" height="1089" fill="url(#paint0_linear_321_11133)"/>
<path d="M296.809 671.118C294.621 657.955 287.811 648.154 281.89 642.397C280.167 640.721 279.306 639.884 277.403 639.109C275.5 638.333 273.864 638.333 270.593 638.333H263.407C260.136 638.333 258.5 638.333 256.597 639.109C254.694 639.884 253.833 640.721 252.11 642.397C246.189 648.154 239.379 657.955 237.191 671.118C235.563 680.911 244.598 688.333 254.694 688.333H279.306C289.402 688.333 298.437 680.911 296.809 671.118Z" stroke="white" stroke-opacity="0.15" stroke-width="1.5" stroke-linecap="round"/>
<path d="M267.46 651.667C267.46 651.252 267.124 650.917 266.71 650.917C266.296 650.917 265.96 651.252 265.96 651.667L267.46 651.667ZM265.96 675C265.96 675.414 266.296 675.75 266.71 675.75C267.124 675.75 267.46 675.414 267.46 675H265.96ZM271.679 657.121C271.929 657.45 272.4 657.514 272.73 657.264C273.059 657.013 273.124 656.543 272.873 656.213L271.679 657.121ZM261.657 669.978C261.348 669.702 260.874 669.728 260.598 670.037C260.322 670.345 260.348 670.82 260.657 671.096L261.657 669.978ZM266.71 662.998V662.248C264.44 662.248 263.029 661.891 262.202 661.334C261.438 660.819 261.083 660.072 261.083 658.965H260.333H259.583C259.583 660.456 260.099 661.726 261.364 662.578C262.565 663.387 264.343 663.748 266.71 663.748V662.998ZM260.333 658.965H261.083C261.083 657.96 261.634 656.988 262.646 656.241C263.659 655.494 265.093 655.01 266.71 655.01V654.26V653.51C264.805 653.51 263.051 654.078 261.756 655.034C260.46 655.99 259.583 657.371 259.583 658.965H260.333ZM273.667 667.703H272.917C272.917 669.101 272.293 670.042 271.243 670.673C270.148 671.331 268.563 671.658 266.71 671.658V672.408V673.158C268.699 673.158 270.593 672.813 272.015 671.959C273.483 671.077 274.417 669.665 274.417 667.703H273.667ZM266.71 662.998V663.748C268.987 663.748 270.545 664.084 271.518 664.718C272.423 665.309 272.917 666.222 272.917 667.703H273.667H274.417C274.417 665.823 273.75 664.384 272.337 663.462C270.991 662.584 269.071 662.248 266.71 662.248V662.998ZM266.71 654.26L267.46 654.26L267.46 651.667L266.71 651.667L265.96 651.667L265.96 654.26L266.71 654.26ZM266.71 672.408H265.96V675H266.71H267.46V672.408H266.71ZM266.71 654.26V655.01C268.918 655.01 270.758 655.909 271.679 657.121L272.276 656.667L272.873 656.213C271.611 654.552 269.283 653.51 266.71 653.51V654.26ZM266.71 672.408V671.658C264.589 671.658 262.764 670.969 261.657 669.978L261.157 670.537L260.657 671.096C262.09 672.378 264.294 673.158 266.71 673.158V672.408Z" fill="white" fill-opacity="0.15"/>
<path d="M251.189 629.81C250.501 628.809 249.504 627.45 251.563 627.14C253.68 626.822 255.877 628.27 258.028 628.241C259.975 628.214 260.966 627.351 262.03 626.118C263.15 624.821 264.884 621.667 267 621.667C269.116 621.667 270.85 624.821 271.97 626.118C273.034 627.351 274.025 628.214 275.971 628.241C278.123 628.27 280.32 626.822 282.437 627.14C284.496 627.45 283.499 628.809 282.811 629.81L279.702 634.335C278.372 636.272 277.707 637.24 276.315 637.786C274.923 638.333 273.124 638.333 269.527 638.333H264.473C260.876 638.333 259.077 638.333 257.685 637.786C256.293 637.24 255.628 636.272 254.298 634.335L251.189 629.81Z" stroke="white" stroke-opacity="0.15" stroke-width="1.5"/>
<path d="M166.809 1082.12C164.621 1068.96 157.811 1059.15 151.89 1053.4C150.167 1051.72 149.306 1050.88 147.403 1050.11C145.5 1049.33 143.864 1049.33 140.593 1049.33H133.407C130.136 1049.33 128.5 1049.33 126.597 1050.11C124.694 1050.88 123.833 1051.72 122.11 1053.4C116.189 1059.15 109.379 1068.96 107.191 1082.12C105.563 1091.91 114.598 1099.33 124.694 1099.33H149.306C159.402 1099.33 168.437 1091.91 166.809 1082.12Z" stroke="white" stroke-opacity="0.15" stroke-width="1.5" stroke-linecap="round"/>
<path d="M137.46 1062.67C137.46 1062.25 137.124 1061.92 136.71 1061.92C136.296 1061.92 135.96 1062.25 135.96 1062.67L137.46 1062.67ZM135.96 1086C135.96 1086.41 136.296 1086.75 136.71 1086.75C137.124 1086.75 137.46 1086.41 137.46 1086H135.96ZM141.679 1068.12C141.929 1068.45 142.4 1068.51 142.73 1068.26C143.059 1068.01 143.124 1067.54 142.873 1067.21L141.679 1068.12ZM131.657 1080.98C131.348 1080.7 130.874 1080.73 130.598 1081.04C130.322 1081.35 130.348 1081.82 130.657 1082.1L131.657 1080.98ZM136.71 1074V1073.25C134.44 1073.25 133.029 1072.89 132.202 1072.33C131.438 1071.82 131.083 1071.07 131.083 1069.96H130.333H129.583C129.583 1071.46 130.099 1072.73 131.364 1073.58C132.565 1074.39 134.343 1074.75 136.71 1074.75V1074ZM130.333 1069.96H131.083C131.083 1068.96 131.634 1067.99 132.646 1067.24C133.659 1066.49 135.093 1066.01 136.71 1066.01V1065.26V1064.51C134.805 1064.51 133.051 1065.08 131.756 1066.03C130.46 1066.99 129.583 1068.37 129.583 1069.96H130.333ZM143.667 1078.7H142.917C142.917 1080.1 142.293 1081.04 141.243 1081.67C140.148 1082.33 138.563 1082.66 136.71 1082.66V1083.41V1084.16C138.699 1084.16 140.593 1083.81 142.015 1082.96C143.483 1082.08 144.417 1080.67 144.417 1078.7H143.667ZM136.71 1074V1074.75C138.987 1074.75 140.545 1075.08 141.518 1075.72C142.423 1076.31 142.917 1077.22 142.917 1078.7H143.667H144.417C144.417 1076.82 143.75 1075.38 142.337 1074.46C140.991 1073.58 139.071 1073.25 136.71 1073.25V1074ZM136.71 1065.26L137.46 1065.26L137.46 1062.67L136.71 1062.67L135.96 1062.67L135.96 1065.26L136.71 1065.26ZM136.71 1083.41H135.96V1086H136.71H137.46V1083.41H136.71ZM136.71 1065.26V1066.01C138.918 1066.01 140.758 1066.91 141.679 1068.12L142.276 1067.67L142.873 1067.21C141.611 1065.55 139.283 1064.51 136.71 1064.51V1065.26ZM136.71 1083.41V1082.66C134.589 1082.66 132.764 1081.97 131.657 1080.98L131.157 1081.54L130.657 1082.1C132.09 1083.38 134.294 1084.16 136.71 1084.16V1083.41Z" fill="white" fill-opacity="0.15"/>
<path d="M121.189 1040.81C120.501 1039.81 119.504 1038.45 121.563 1038.14C123.68 1037.82 125.877 1039.27 128.028 1039.24C129.975 1039.21 130.966 1038.35 132.03 1037.12C133.15 1035.82 134.884 1032.67 137 1032.67C139.116 1032.67 140.85 1035.82 141.97 1037.12C143.034 1038.35 144.025 1039.21 145.971 1039.24C148.123 1039.27 150.32 1037.82 152.437 1038.14C154.496 1038.45 153.499 1039.81 152.811 1040.81L149.702 1045.34C148.372 1047.27 147.707 1048.24 146.315 1048.79C144.923 1049.33 143.124 1049.33 139.527 1049.33H134.473C130.876 1049.33 129.077 1049.33 127.685 1048.79C126.293 1048.24 125.628 1047.27 124.298 1045.34L121.189 1040.81Z" stroke="white" stroke-opacity="0.15" stroke-width="1.5"/>
<path d="M51.8091 818.118C49.6213 804.955 42.8106 795.154 36.8899 789.397C35.167 787.721 34.3055 786.884 32.4026 786.109C30.4997 785.333 28.864 785.333 25.5926 785.333H18.4074C15.136 785.333 13.5003 785.333 11.5974 786.109C9.69446 786.884 8.83302 787.721 7.11013 789.397C1.18939 795.154 -5.62131 804.955 -7.80911 818.118C-9.4369 827.911 -0.402429 835.333 9.69441 835.333H34.3056C44.4024 835.333 53.4369 827.911 51.8091 818.118Z" stroke="white" stroke-opacity="0.15" stroke-width="1.5" stroke-linecap="round"/>
<path d="M22.4601 798.667C22.4601 798.252 22.1243 797.917 21.7101 797.917C21.2959 797.917 20.9601 798.252 20.9601 798.667L22.4601 798.667ZM20.9601 822C20.9601 822.414 21.2959 822.75 21.7101 822.75C22.1243 822.75 22.4601 822.414 22.4601 822H20.9601ZM26.6787 804.121C26.9294 804.45 27.3999 804.514 27.7297 804.264C28.0594 804.013 28.1236 803.543 27.8729 803.213L26.6787 804.121ZM16.6569 816.978C16.3483 816.702 15.8741 816.728 15.5979 817.037C15.3216 817.345 15.3479 817.82 15.6566 818.096L16.6569 816.978ZM21.7101 809.998V809.248C19.4396 809.248 18.029 808.891 17.2016 808.334C16.4377 807.819 16.0833 807.072 16.0833 805.965H15.3333H14.5833C14.5833 807.456 15.0985 808.726 16.3636 809.578C17.5652 810.387 19.3429 810.748 21.7101 810.748V809.998ZM15.3333 805.965H16.0833C16.0833 804.96 16.6338 803.988 17.6463 803.241C18.6587 802.494 20.093 802.01 21.7101 802.01V801.26V800.51C19.8055 800.51 18.0514 801.078 16.7557 802.034C15.4604 802.99 14.5833 804.371 14.5833 805.965H15.3333ZM28.6666 814.703H27.9166C27.9166 816.101 27.2927 817.042 26.2429 817.673C25.1477 818.331 23.5629 818.658 21.7101 818.658V819.408V820.158C23.6993 820.158 25.5928 819.813 27.0153 818.959C28.4833 818.077 29.4166 816.665 29.4166 814.703H28.6666ZM21.7101 809.998V810.748C23.9867 810.748 25.5447 811.084 26.5178 811.718C27.4234 812.309 27.9166 813.222 27.9166 814.703H28.6666H29.4166C29.4166 812.823 28.7505 811.384 27.3372 810.462C25.9915 809.584 24.0713 809.248 21.7101 809.248V809.998ZM21.7101 801.26L22.4601 801.26L22.4601 798.667L21.7101 798.667L20.9601 798.667L20.9601 801.26L21.7101 801.26ZM21.7101 819.408H20.9601V822H21.7101H22.4601V819.408H21.7101ZM21.7101 801.26V802.01C23.9184 802.01 25.7576 802.909 26.6787 804.121L27.2758 803.667L27.8729 803.213C26.6106 801.552 24.2831 800.51 21.7101 800.51V801.26ZM21.7101 819.408V818.658C19.5887 818.658 17.7638 817.969 16.6569 816.978L16.1568 817.537L15.6566 818.096C17.0895 819.378 19.2944 820.158 21.7101 820.158V819.408Z" fill="white" fill-opacity="0.15"/>
<path d="M6.18871 776.81C5.50103 775.809 4.50423 774.45 6.56329 774.14C8.67971 773.822 10.8774 775.27 13.0285 775.241C14.9745 775.214 15.966 774.351 17.0297 773.118C18.1498 771.821 19.8841 768.667 22 768.667C24.1159 768.667 25.8502 771.821 26.9703 773.118C28.034 774.351 29.0254 775.214 30.9715 775.241C33.1226 775.27 35.3203 773.822 37.4367 774.14C39.4957 774.45 38.4989 775.809 37.8112 776.81L34.7018 781.335C33.3717 783.272 32.7066 784.24 31.3148 784.786C29.923 785.333 28.1244 785.333 24.5273 785.333H19.4727C15.8755 785.333 14.077 785.333 12.6852 784.786C11.2934 784.24 10.6283 783.272 9.29816 781.335L6.18871 776.81Z" stroke="white" stroke-opacity="0.15" stroke-width="1.5"/>
<path d="M216.809 218.118C214.621 204.955 207.811 195.154 201.89 189.397C200.167 187.721 199.306 186.884 197.403 186.109C195.5 185.333 193.864 185.333 190.593 185.333H183.407C180.136 185.333 178.5 185.333 176.597 186.109C174.694 186.884 173.833 187.721 172.11 189.397C166.189 195.154 159.379 204.955 157.191 218.118C155.563 227.911 164.598 235.333 174.694 235.333H199.306C209.402 235.333 218.437 227.911 216.809 218.118Z" stroke="white" stroke-opacity="0.15" stroke-width="1.5" stroke-linecap="round"/>
<path d="M187.46 198.667C187.46 198.252 187.124 197.917 186.71 197.917C186.296 197.917 185.96 198.252 185.96 198.667L187.46 198.667ZM185.96 222C185.96 222.414 186.296 222.75 186.71 222.75C187.124 222.75 187.46 222.414 187.46 222H185.96ZM191.679 204.12C191.929 204.45 192.4 204.514 192.73 204.264C193.059 204.013 193.124 203.543 192.873 203.213L191.679 204.12ZM181.657 216.978C181.348 216.702 180.874 216.728 180.598 217.037C180.322 217.345 180.348 217.82 180.657 218.096L181.657 216.978ZM186.71 209.998V209.248C184.44 209.248 183.029 208.891 182.202 208.334C181.438 207.819 181.083 207.072 181.083 205.965H180.333H179.583C179.583 207.456 180.099 208.726 181.364 209.578C182.565 210.387 184.343 210.748 186.71 210.748V209.998ZM180.333 205.965H181.083C181.083 204.96 181.634 203.988 182.646 203.241C183.659 202.494 185.093 202.01 186.71 202.01V201.26V200.51C184.805 200.51 183.051 201.078 181.756 202.034C180.46 202.99 179.583 204.371 179.583 205.965H180.333ZM193.667 214.703H192.917C192.917 216.101 192.293 217.042 191.243 217.673C190.148 218.331 188.563 218.658 186.71 218.658V219.408V220.158C188.699 220.158 190.593 219.813 192.015 218.959C193.483 218.077 194.417 216.665 194.417 214.703H193.667ZM186.71 209.998V210.748C188.987 210.748 190.545 211.084 191.518 211.718C192.423 212.309 192.917 213.222 192.917 214.703H193.667H194.417C194.417 212.823 193.75 211.383 192.337 210.462C190.991 209.584 189.071 209.248 186.71 209.248V209.998ZM186.71 201.26L187.46 201.26L187.46 198.667L186.71 198.667L185.96 198.667L185.96 201.26L186.71 201.26ZM186.71 219.408H185.96V222H186.71H187.46V219.408H186.71ZM186.71 201.26V202.01C188.918 202.01 190.758 202.909 191.679 204.12L192.276 203.667L192.873 203.213C191.611 201.552 189.283 200.51 186.71 200.51V201.26ZM186.71 219.408V218.658C184.589 218.658 182.764 217.969 181.657 216.978L181.157 217.537L180.657 218.096C182.09 219.378 184.294 220.158 186.71 220.158V219.408Z" fill="white" fill-opacity="0.15"/>
<path d="M171.189 176.81C170.501 175.809 169.504 174.45 171.563 174.14C173.68 173.822 175.877 175.27 178.028 175.241C179.975 175.214 180.966 174.351 182.03 173.118C183.15 171.821 184.884 168.667 187 168.667C189.116 168.667 190.85 171.821 191.97 173.118C193.034 174.351 194.025 175.214 195.971 175.241C198.123 175.27 200.32 173.822 202.437 174.14C204.496 174.45 203.499 175.809 202.811 176.81L199.702 181.335C198.372 183.271 197.707 184.24 196.315 184.786C194.923 185.333 193.124 185.333 189.527 185.333H184.473C180.876 185.333 179.077 185.333 177.685 184.786C176.293 184.24 175.628 183.271 174.298 181.335L171.189 176.81Z" stroke="white" stroke-opacity="0.15" stroke-width="1.5"/>
<path d="M691.809 839.118C689.621 825.955 682.811 816.154 676.89 810.397C675.167 808.721 674.306 807.884 672.403 807.109C670.5 806.333 668.864 806.333 665.593 806.333H658.407C655.136 806.333 653.5 806.333 651.597 807.109C649.694 807.884 648.833 808.721 647.11 810.397C641.189 816.154 634.379 825.955 632.191 839.118C630.563 848.911 639.598 856.333 649.694 856.333H674.306C684.402 856.333 693.437 848.911 691.809 839.118Z" stroke="white" stroke-opacity="0.15" stroke-width="1.5" stroke-linecap="round"/>
<path d="M662.46 819.667C662.46 819.252 662.124 818.917 661.71 818.917C661.296 818.917 660.96 819.252 660.96 819.667L662.46 819.667ZM660.96 843C660.96 843.414 661.296 843.75 661.71 843.75C662.124 843.75 662.46 843.414 662.46 843H660.96ZM666.679 825.121C666.929 825.45 667.4 825.514 667.73 825.264C668.059 825.013 668.124 824.543 667.873 824.213L666.679 825.121ZM656.657 837.978C656.348 837.702 655.874 837.728 655.598 838.037C655.322 838.345 655.348 838.82 655.657 839.096L656.657 837.978ZM661.71 830.998V830.248C659.44 830.248 658.029 829.891 657.202 829.334C656.438 828.819 656.083 828.072 656.083 826.965H655.333H654.583C654.583 828.456 655.099 829.726 656.364 830.578C657.565 831.387 659.343 831.748 661.71 831.748V830.998ZM655.333 826.965H656.083C656.083 825.96 656.634 824.988 657.646 824.241C658.659 823.494 660.093 823.01 661.71 823.01V822.26V821.51C659.806 821.51 658.051 822.078 656.756 823.034C655.46 823.99 654.583 825.371 654.583 826.965H655.333ZM668.667 835.703H667.917C667.917 837.101 667.293 838.042 666.243 838.673C665.148 839.331 663.563 839.658 661.71 839.658V840.408V841.158C663.699 841.158 665.593 840.813 667.015 839.959C668.483 839.077 669.417 837.665 669.417 835.703H668.667ZM661.71 830.998V831.748C663.987 831.748 665.545 832.084 666.518 832.718C667.423 833.309 667.917 834.222 667.917 835.703H668.667H669.417C669.417 833.823 668.751 832.384 667.337 831.462C665.992 830.584 664.071 830.248 661.71 830.248V830.998ZM661.71 822.26L662.46 822.26L662.46 819.667L661.71 819.667L660.96 819.667L660.96 822.26L661.71 822.26ZM661.71 840.408H660.96V843H661.71H662.46V840.408H661.71ZM661.71 822.26V823.01C663.918 823.01 665.758 823.909 666.679 825.121L667.276 824.667L667.873 824.213C666.611 822.552 664.283 821.51 661.71 821.51V822.26ZM661.71 840.408V839.658C659.589 839.658 657.764 838.969 656.657 837.978L656.157 838.537L655.657 839.096C657.09 840.378 659.294 841.158 661.71 841.158V840.408Z" fill="white" fill-opacity="0.15"/>
<path d="M646.189 797.81C645.501 796.809 644.504 795.45 646.563 795.14C648.68 794.822 650.877 796.27 653.029 796.241C654.975 796.214 655.966 795.351 657.03 794.118C658.15 792.821 659.884 789.667 662 789.667C664.116 789.667 665.85 792.821 666.97 794.118C668.034 795.351 669.025 796.214 670.972 796.241C673.123 796.27 675.32 794.822 677.437 795.14C679.496 795.45 678.499 796.809 677.811 797.81L674.702 802.335C673.372 804.272 672.707 805.24 671.315 805.786C669.923 806.333 668.124 806.333 664.527 806.333H659.473C655.876 806.333 654.077 806.333 652.685 805.786C651.293 805.24 650.628 804.272 649.298 802.335L646.189 797.81Z" stroke="white" stroke-opacity="0.15" stroke-width="1.5"/>
<path d="M1196.81 1039.12C1194.62 1025.96 1187.81 1016.15 1181.89 1010.4C1180.17 1008.72 1179.31 1007.88 1177.4 1007.11C1175.5 1006.33 1173.86 1006.33 1170.59 1006.33H1163.41C1160.14 1006.33 1158.5 1006.33 1156.6 1007.11C1154.69 1007.88 1153.83 1008.72 1152.11 1010.4C1146.19 1016.15 1139.38 1025.96 1137.19 1039.12C1135.56 1048.91 1144.6 1056.33 1154.69 1056.33H1179.31C1189.4 1056.33 1198.44 1048.91 1196.81 1039.12Z" stroke="white" stroke-opacity="0.15" stroke-width="1.5" stroke-linecap="round"/>
<path d="M1167.46 1019.67C1167.46 1019.25 1167.12 1018.92 1166.71 1018.92C1166.3 1018.92 1165.96 1019.25 1165.96 1019.67L1167.46 1019.67ZM1165.96 1043C1165.96 1043.41 1166.3 1043.75 1166.71 1043.75C1167.12 1043.75 1167.46 1043.41 1167.46 1043H1165.96ZM1171.68 1025.12C1171.93 1025.45 1172.4 1025.51 1172.73 1025.26C1173.06 1025.01 1173.12 1024.54 1172.87 1024.21L1171.68 1025.12ZM1161.66 1037.98C1161.35 1037.7 1160.87 1037.73 1160.6 1038.04C1160.32 1038.35 1160.35 1038.82 1160.66 1039.1L1161.66 1037.98ZM1166.71 1031V1030.25C1164.44 1030.25 1163.03 1029.89 1162.2 1029.33C1161.44 1028.82 1161.08 1028.07 1161.08 1026.96H1160.33H1159.58C1159.58 1028.46 1160.1 1029.73 1161.36 1030.58C1162.57 1031.39 1164.34 1031.75 1166.71 1031.75V1031ZM1160.33 1026.96H1161.08C1161.08 1025.96 1161.63 1024.99 1162.65 1024.24C1163.66 1023.49 1165.09 1023.01 1166.71 1023.01V1022.26V1021.51C1164.81 1021.51 1163.05 1022.08 1161.76 1023.03C1160.46 1023.99 1159.58 1025.37 1159.58 1026.96H1160.33ZM1173.67 1035.7H1172.92C1172.92 1037.1 1172.29 1038.04 1171.24 1038.67C1170.15 1039.33 1168.56 1039.66 1166.71 1039.66V1040.41V1041.16C1168.7 1041.16 1170.59 1040.81 1172.02 1039.96C1173.48 1039.08 1174.42 1037.67 1174.42 1035.7H1173.67ZM1166.71 1031V1031.75C1168.99 1031.75 1170.54 1032.08 1171.52 1032.72C1172.42 1033.31 1172.92 1034.22 1172.92 1035.7H1173.67H1174.42C1174.42 1033.82 1173.75 1032.38 1172.34 1031.46C1170.99 1030.58 1169.07 1030.25 1166.71 1030.25V1031ZM1166.71 1022.26L1167.46 1022.26L1167.46 1019.67L1166.71 1019.67L1165.96 1019.67L1165.96 1022.26L1166.71 1022.26ZM1166.71 1040.41H1165.96V1043H1166.71H1167.46V1040.41H1166.71ZM1166.71 1022.26V1023.01C1168.92 1023.01 1170.76 1023.91 1171.68 1025.12L1172.28 1024.67L1172.87 1024.21C1171.61 1022.55 1169.28 1021.51 1166.71 1021.51V1022.26ZM1166.71 1040.41V1039.66C1164.59 1039.66 1162.76 1038.97 1161.66 1037.98L1161.16 1038.54L1160.66 1039.1C1162.09 1040.38 1164.29 1041.16 1166.71 1041.16V1040.41Z" fill="white" fill-opacity="0.15"/>
<path d="M1151.19 997.81C1150.5 996.809 1149.5 995.45 1151.56 995.14C1153.68 994.822 1155.88 996.27 1158.03 996.241C1159.97 996.214 1160.97 995.351 1162.03 994.118C1163.15 992.821 1164.88 989.667 1167 989.667C1169.12 989.667 1170.85 992.821 1171.97 994.118C1173.03 995.351 1174.03 996.214 1175.97 996.241C1178.12 996.27 1180.32 994.822 1182.44 995.14C1184.5 995.45 1183.5 996.809 1182.81 997.81L1179.7 1002.34C1178.37 1004.27 1177.71 1005.24 1176.31 1005.79C1174.92 1006.33 1173.12 1006.33 1169.53 1006.33H1164.47C1160.88 1006.33 1159.08 1006.33 1157.69 1005.79C1156.29 1005.24 1155.63 1004.27 1154.3 1002.34L1151.19 997.81Z" stroke="white" stroke-opacity="0.15" stroke-width="1.5"/>
<path d="M1429.81 711.118C1427.62 697.955 1420.81 688.154 1414.89 682.397C1413.17 680.721 1412.31 679.884 1410.4 679.109C1408.5 678.333 1406.86 678.333 1403.59 678.333H1396.41C1393.14 678.333 1391.5 678.333 1389.6 679.109C1387.69 679.884 1386.83 680.721 1385.11 682.397C1379.19 688.154 1372.38 697.955 1370.19 711.118C1368.56 720.911 1377.6 728.333 1387.69 728.333H1412.31C1422.4 728.333 1431.44 720.911 1429.81 711.118Z" stroke="white" stroke-opacity="0.15" stroke-width="1.5" stroke-linecap="round"/>
<path d="M1400.46 691.667C1400.46 691.252 1400.12 690.917 1399.71 690.917C1399.3 690.917 1398.96 691.252 1398.96 691.667L1400.46 691.667ZM1398.96 715C1398.96 715.414 1399.3 715.75 1399.71 715.75C1400.12 715.75 1400.46 715.414 1400.46 715H1398.96ZM1404.68 697.121C1404.93 697.45 1405.4 697.514 1405.73 697.264C1406.06 697.013 1406.12 696.543 1405.87 696.213L1404.68 697.121ZM1394.66 709.978C1394.35 709.702 1393.87 709.728 1393.6 710.037C1393.32 710.345 1393.35 710.82 1393.66 711.096L1394.66 709.978ZM1399.71 702.998V702.248C1397.44 702.248 1396.03 701.891 1395.2 701.334C1394.44 700.819 1394.08 700.072 1394.08 698.965H1393.33H1392.58C1392.58 700.456 1393.1 701.726 1394.36 702.578C1395.57 703.387 1397.34 703.748 1399.71 703.748V702.998ZM1393.33 698.965H1394.08C1394.08 697.96 1394.63 696.988 1395.65 696.241C1396.66 695.494 1398.09 695.01 1399.71 695.01V694.26V693.51C1397.81 693.51 1396.05 694.078 1394.76 695.034C1393.46 695.99 1392.58 697.371 1392.58 698.965H1393.33ZM1406.67 707.703H1405.92C1405.92 709.101 1405.29 710.042 1404.24 710.673C1403.15 711.331 1401.56 711.658 1399.71 711.658V712.408V713.158C1401.7 713.158 1403.59 712.813 1405.02 711.959C1406.48 711.077 1407.42 709.665 1407.42 707.703H1406.67ZM1399.71 702.998V703.748C1401.99 703.748 1403.54 704.084 1404.52 704.718C1405.42 705.309 1405.92 706.222 1405.92 707.703H1406.67H1407.42C1407.42 705.823 1406.75 704.384 1405.34 703.462C1403.99 702.584 1402.07 702.248 1399.71 702.248V702.998ZM1399.71 694.26L1400.46 694.26L1400.46 691.667L1399.71 691.667L1398.96 691.667L1398.96 694.26L1399.71 694.26ZM1399.71 712.408H1398.96V715H1399.71H1400.46V712.408H1399.71ZM1399.71 694.26V695.01C1401.92 695.01 1403.76 695.909 1404.68 697.121L1405.28 696.667L1405.87 696.213C1404.61 694.552 1402.28 693.51 1399.71 693.51V694.26ZM1399.71 712.408V711.658C1397.59 711.658 1395.76 710.969 1394.66 709.978L1394.16 710.537L1393.66 711.096C1395.09 712.378 1397.29 713.158 1399.71 713.158V712.408Z" fill="white" fill-opacity="0.15"/>
<path d="M1384.19 669.81C1383.5 668.809 1382.5 667.45 1384.56 667.14C1386.68 666.822 1388.88 668.27 1391.03 668.241C1392.97 668.214 1393.97 667.351 1395.03 666.118C1396.15 664.821 1397.88 661.667 1400 661.667C1402.12 661.667 1403.85 664.821 1404.97 666.118C1406.03 667.351 1407.03 668.214 1408.97 668.241C1411.12 668.27 1413.32 666.822 1415.44 667.14C1417.5 667.45 1416.5 668.809 1415.81 669.81L1412.7 674.335C1411.37 676.272 1410.71 677.24 1409.31 677.786C1407.92 678.333 1406.12 678.333 1402.53 678.333H1397.47C1393.88 678.333 1392.08 678.333 1390.69 677.786C1389.29 677.24 1388.63 676.272 1387.3 674.335L1384.19 669.81Z" stroke="white" stroke-opacity="0.15" stroke-width="1.5"/>
<path d="M1236.81 471.118C1234.62 457.955 1227.81 448.154 1221.89 442.397C1220.17 440.721 1219.31 439.884 1217.4 439.109C1215.5 438.333 1213.86 438.333 1210.59 438.333H1203.41C1200.14 438.333 1198.5 438.333 1196.6 439.109C1194.69 439.884 1193.83 440.721 1192.11 442.397C1186.19 448.154 1179.38 457.955 1177.19 471.118C1175.56 480.911 1184.6 488.333 1194.69 488.333H1219.31C1229.4 488.333 1238.44 480.911 1236.81 471.118Z" stroke="white" stroke-opacity="0.15" stroke-width="1.5" stroke-linecap="round"/>
<path d="M1207.46 451.667C1207.46 451.252 1207.12 450.917 1206.71 450.917C1206.3 450.917 1205.96 451.252 1205.96 451.667L1207.46 451.667ZM1205.96 475C1205.96 475.414 1206.3 475.75 1206.71 475.75C1207.12 475.75 1207.46 475.414 1207.46 475H1205.96ZM1211.68 457.121C1211.93 457.45 1212.4 457.514 1212.73 457.264C1213.06 457.013 1213.12 456.543 1212.87 456.213L1211.68 457.121ZM1201.66 469.978C1201.35 469.702 1200.87 469.728 1200.6 470.037C1200.32 470.345 1200.35 470.82 1200.66 471.096L1201.66 469.978ZM1206.71 462.998V462.248C1204.44 462.248 1203.03 461.891 1202.2 461.334C1201.44 460.819 1201.08 460.072 1201.08 458.965H1200.33H1199.58C1199.58 460.456 1200.1 461.726 1201.36 462.578C1202.57 463.387 1204.34 463.748 1206.71 463.748V462.998ZM1200.33 458.965H1201.08C1201.08 457.96 1201.63 456.988 1202.65 456.241C1203.66 455.494 1205.09 455.01 1206.71 455.01V454.26V453.51C1204.81 453.51 1203.05 454.078 1201.76 455.034C1200.46 455.99 1199.58 457.371 1199.58 458.965H1200.33ZM1213.67 467.703H1212.92C1212.92 469.101 1212.29 470.042 1211.24 470.673C1210.15 471.331 1208.56 471.658 1206.71 471.658V472.408V473.158C1208.7 473.158 1210.59 472.813 1212.02 471.959C1213.48 471.077 1214.42 469.665 1214.42 467.703H1213.67ZM1206.71 462.998V463.748C1208.99 463.748 1210.54 464.084 1211.52 464.718C1212.42 465.309 1212.92 466.222 1212.92 467.703H1213.67H1214.42C1214.42 465.823 1213.75 464.384 1212.34 463.462C1210.99 462.584 1209.07 462.248 1206.71 462.248V462.998ZM1206.71 454.26L1207.46 454.26L1207.46 451.667L1206.71 451.667L1205.96 451.667L1205.96 454.26L1206.71 454.26ZM1206.71 472.408H1205.96V475H1206.71H1207.46V472.408H1206.71ZM1206.71 454.26V455.01C1208.92 455.01 1210.76 455.909 1211.68 457.121L1212.28 456.667L1212.87 456.213C1211.61 454.552 1209.28 453.51 1206.71 453.51V454.26ZM1206.71 472.408V471.658C1204.59 471.658 1202.76 470.969 1201.66 469.978L1201.16 470.537L1200.66 471.096C1202.09 472.378 1204.29 473.158 1206.71 473.158V472.408Z" fill="white" fill-opacity="0.15"/>
<path d="M1191.19 429.81C1190.5 428.809 1189.5 427.45 1191.56 427.14C1193.68 426.822 1195.88 428.27 1198.03 428.241C1199.97 428.214 1200.97 427.351 1202.03 426.118C1203.15 424.821 1204.88 421.667 1207 421.667C1209.12 421.667 1210.85 424.821 1211.97 426.118C1213.03 427.351 1214.03 428.214 1215.97 428.241C1218.12 428.27 1220.32 426.822 1222.44 427.14C1224.5 427.45 1223.5 428.809 1222.81 429.81L1219.7 434.335C1218.37 436.272 1217.71 437.24 1216.31 437.786C1214.92 438.333 1213.12 438.333 1209.53 438.333H1204.47C1200.88 438.333 1199.08 438.333 1197.69 437.786C1196.29 437.24 1195.63 436.272 1194.3 434.335L1191.19 429.81Z" stroke="white" stroke-opacity="0.15" stroke-width="1.5"/>
<path d="M1349.81 241.118C1347.62 227.955 1340.81 218.154 1334.89 212.397C1333.17 210.721 1332.31 209.884 1330.4 209.109C1328.5 208.333 1326.86 208.333 1323.59 208.333H1316.41C1313.14 208.333 1311.5 208.333 1309.6 209.109C1307.69 209.884 1306.83 210.721 1305.11 212.397C1299.19 218.154 1292.38 227.955 1290.19 241.118C1288.56 250.911 1297.6 258.333 1307.69 258.333H1332.31C1342.4 258.333 1351.44 250.911 1349.81 241.118Z" stroke="white" stroke-opacity="0.15" stroke-width="1.5" stroke-linecap="round"/>
<path d="M1320.46 221.667C1320.46 221.252 1320.12 220.917 1319.71 220.917C1319.3 220.917 1318.96 221.252 1318.96 221.667L1320.46 221.667ZM1318.96 245C1318.96 245.414 1319.3 245.75 1319.71 245.75C1320.12 245.75 1320.46 245.414 1320.46 245H1318.96ZM1324.68 227.12C1324.93 227.45 1325.4 227.514 1325.73 227.264C1326.06 227.013 1326.12 226.543 1325.87 226.213L1324.68 227.12ZM1314.66 239.978C1314.35 239.702 1313.87 239.728 1313.6 240.037C1313.32 240.345 1313.35 240.82 1313.66 241.096L1314.66 239.978ZM1319.71 232.998V232.248C1317.44 232.248 1316.03 231.891 1315.2 231.334C1314.44 230.819 1314.08 230.072 1314.08 228.965H1313.33H1312.58C1312.58 230.456 1313.1 231.726 1314.36 232.578C1315.57 233.387 1317.34 233.748 1319.71 233.748V232.998ZM1313.33 228.965H1314.08C1314.08 227.96 1314.63 226.988 1315.65 226.241C1316.66 225.494 1318.09 225.01 1319.71 225.01V224.26V223.51C1317.81 223.51 1316.05 224.078 1314.76 225.034C1313.46 225.99 1312.58 227.371 1312.58 228.965H1313.33ZM1326.67 237.703H1325.92C1325.92 239.101 1325.29 240.042 1324.24 240.673C1323.15 241.331 1321.56 241.658 1319.71 241.658V242.408V243.158C1321.7 243.158 1323.59 242.813 1325.02 241.959C1326.48 241.077 1327.42 239.665 1327.42 237.703H1326.67ZM1319.71 232.998V233.748C1321.99 233.748 1323.54 234.084 1324.52 234.718C1325.42 235.309 1325.92 236.222 1325.92 237.703H1326.67H1327.42C1327.42 235.823 1326.75 234.383 1325.34 233.462C1323.99 232.584 1322.07 232.248 1319.71 232.248V232.998ZM1319.71 224.26L1320.46 224.26L1320.46 221.667L1319.71 221.667L1318.96 221.667L1318.96 224.26L1319.71 224.26ZM1319.71 242.408H1318.96V245H1319.71H1320.46V242.408H1319.71ZM1319.71 224.26V225.01C1321.92 225.01 1323.76 225.909 1324.68 227.12L1325.28 226.667L1325.87 226.213C1324.61 224.552 1322.28 223.51 1319.71 223.51V224.26ZM1319.71 242.408V241.658C1317.59 241.658 1315.76 240.969 1314.66 239.978L1314.16 240.537L1313.66 241.096C1315.09 242.378 1317.29 243.158 1319.71 243.158V242.408Z" fill="white" fill-opacity="0.15"/>
<path d="M1304.19 199.81C1303.5 198.809 1302.5 197.45 1304.56 197.14C1306.68 196.822 1308.88 198.27 1311.03 198.241C1312.97 198.214 1313.97 197.351 1315.03 196.118C1316.15 194.821 1317.88 191.667 1320 191.667C1322.12 191.667 1323.85 194.821 1324.97 196.118C1326.03 197.351 1327.03 198.214 1328.97 198.241C1331.12 198.27 1333.32 196.822 1335.44 197.14C1337.5 197.45 1336.5 198.809 1335.81 199.81L1332.7 204.335C1331.37 206.271 1330.71 207.24 1329.31 207.786C1327.92 208.333 1326.12 208.333 1322.53 208.333H1317.47C1313.88 208.333 1312.08 208.333 1310.69 207.786C1309.29 207.24 1308.63 206.271 1307.3 204.335L1304.19 199.81Z" stroke="white" stroke-opacity="0.15" stroke-width="1.5"/>
<path d="M1126.81 756.118C1124.62 742.955 1117.81 733.154 1111.89 727.397C1110.17 725.721 1109.31 724.884 1107.4 724.109C1105.5 723.333 1103.86 723.333 1100.59 723.333H1093.41C1090.14 723.333 1088.5 723.333 1086.6 724.109C1084.69 724.884 1083.83 725.721 1082.11 727.397C1076.19 733.154 1069.38 742.955 1067.19 756.118C1065.56 765.911 1074.6 773.333 1084.69 773.333H1109.31C1119.4 773.333 1128.44 765.911 1126.81 756.118Z" stroke="white" stroke-opacity="0.15" stroke-width="1.5" stroke-linecap="round"/>
<path d="M1097.46 736.667C1097.46 736.252 1097.12 735.917 1096.71 735.917C1096.3 735.917 1095.96 736.252 1095.96 736.667L1097.46 736.667ZM1095.96 760C1095.96 760.414 1096.3 760.75 1096.71 760.75C1097.12 760.75 1097.46 760.414 1097.46 760H1095.96ZM1101.68 742.121C1101.93 742.45 1102.4 742.514 1102.73 742.264C1103.06 742.013 1103.12 741.543 1102.87 741.213L1101.68 742.121ZM1091.66 754.978C1091.35 754.702 1090.87 754.728 1090.6 755.037C1090.32 755.345 1090.35 755.82 1090.66 756.096L1091.66 754.978ZM1096.71 747.998V747.248C1094.44 747.248 1093.03 746.891 1092.2 746.334C1091.44 745.819 1091.08 745.072 1091.08 743.965H1090.33H1089.58C1089.58 745.456 1090.1 746.726 1091.36 747.578C1092.57 748.387 1094.34 748.748 1096.71 748.748V747.998ZM1090.33 743.965H1091.08C1091.08 742.96 1091.63 741.988 1092.65 741.241C1093.66 740.494 1095.09 740.01 1096.71 740.01V739.26V738.51C1094.81 738.51 1093.05 739.078 1091.76 740.034C1090.46 740.99 1089.58 742.371 1089.58 743.965H1090.33ZM1103.67 752.703H1102.92C1102.92 754.101 1102.29 755.042 1101.24 755.673C1100.15 756.331 1098.56 756.658 1096.71 756.658V757.408V758.158C1098.7 758.158 1100.59 757.813 1102.02 756.959C1103.48 756.077 1104.42 754.665 1104.42 752.703H1103.67ZM1096.71 747.998V748.748C1098.99 748.748 1100.54 749.084 1101.52 749.718C1102.42 750.309 1102.92 751.222 1102.92 752.703H1103.67H1104.42C1104.42 750.823 1103.75 749.384 1102.34 748.462C1100.99 747.584 1099.07 747.248 1096.71 747.248V747.998ZM1096.71 739.26L1097.46 739.26L1097.46 736.667L1096.71 736.667L1095.96 736.667L1095.96 739.26L1096.71 739.26ZM1096.71 757.408H1095.96V760H1096.71H1097.46V757.408H1096.71ZM1096.71 739.26V740.01C1098.92 740.01 1100.76 740.909 1101.68 742.121L1102.28 741.667L1102.87 741.213C1101.61 739.552 1099.28 738.51 1096.71 738.51V739.26ZM1096.71 757.408V756.658C1094.59 756.658 1092.76 755.969 1091.66 754.978L1091.16 755.537L1090.66 756.096C1092.09 757.378 1094.29 758.158 1096.71 758.158V757.408Z" fill="white" fill-opacity="0.15"/>
<path d="M1081.19 714.81C1080.5 713.809 1079.5 712.45 1081.56 712.14C1083.68 711.822 1085.88 713.27 1088.03 713.241C1089.97 713.214 1090.97 712.351 1092.03 711.118C1093.15 709.821 1094.88 706.667 1097 706.667C1099.12 706.667 1100.85 709.821 1101.97 711.118C1103.03 712.351 1104.03 713.214 1105.97 713.241C1108.12 713.27 1110.32 711.822 1112.44 712.14C1114.5 712.45 1113.5 713.809 1112.81 714.81L1109.7 719.335C1108.37 721.272 1107.71 722.24 1106.31 722.786C1104.92 723.333 1103.12 723.333 1099.53 723.333H1094.47C1090.88 723.333 1089.08 723.333 1087.69 722.786C1086.29 722.24 1085.63 721.272 1084.3 719.335L1081.19 714.81Z" stroke="white" stroke-opacity="0.15" stroke-width="1.5"/>
</g>
</g>
<defs>
<linearGradient id="paint0_linear_321_11133" x1="731.5" y1="772.5" x2="741" y2="-55" gradientUnits="userSpaceOnUse">
<stop stop-color="#134DC1"/>
<stop offset="1" stop-color="#03B4FA"/>
</linearGradient>
<clipPath id="clip0_321_11133">
<rect width="1440" height="1089" fill="white"/>
</clipPath>
<clipPath id="clip1_321_11133">
<rect width="1440" height="1089" fill="white"/>
</clipPath>
</defs>
</svg>
