<svg width="612" height="59" viewBox="0 0 612 59" fill="none" xmlns="http://www.w3.org/2000/svg">
<path d="M7.69342 12.2103L13.7522 46.8466C14.4419 50.7893 11.0495 54.2409 7.0954 53.6195C3.91035 53.119 1.73412 50.1312 2.23465 46.9462L7.69342 12.2103Z" fill="white"/>
<path d="M40.2098 14L43.8072 48.9777C44.2167 52.9593 40.589 56.1627 36.6887 55.2636C33.5469 54.5393 31.5871 51.4053 32.3114 48.2636L40.2098 14Z" fill="white"/>
<path d="M71.2098 14L74.8072 48.9777C75.2167 52.9593 71.589 56.1627 67.6887 55.2636C64.5469 54.5393 62.5871 51.4053 63.3114 48.2636L71.2098 14Z" fill="white"/>
<path d="M102.21 11L105.807 45.9777C106.217 49.9593 102.589 53.1627 98.6885 52.2636C95.5468 51.5393 93.587 48.4053 94.3113 45.2636L102.21 11Z" fill="white"/>
<path d="M131.119 6.31885L138.11 40.7789C138.906 44.7016 135.608 48.2435 131.639 47.7291C128.441 47.3147 126.185 44.3868 126.6 41.1894L131.119 6.31885Z" fill="white"/>
<path d="M161.368 5.48523L169.578 39.6753C170.513 43.5673 167.343 47.2241 163.358 46.8509C160.148 46.5503 157.789 43.7044 158.089 40.4943L161.368 5.48523Z" fill="white"/>
<path d="M193.434 5.25739L199.914 39.8173C200.652 43.7513 197.302 47.244 193.34 46.6708C190.149 46.2091 187.937 43.2481 188.398 40.0572L193.434 5.25739Z" fill="white"/>
<path d="M224.356 4.27203L230.962 38.8081C231.714 42.7394 228.377 46.2443 224.413 45.6855C221.221 45.2354 218.998 42.2825 219.448 39.0899L224.356 4.27203Z" fill="white"/>
<path d="M255.603 5.22638L261.809 39.8366C262.515 43.7763 259.137 47.2423 255.181 46.6378C251.994 46.1508 249.805 43.1723 250.292 39.9851L255.603 5.22638Z" fill="white"/>
<path d="M347.239 4.5166L355.658 38.656C356.617 42.5422 353.469 46.2182 349.481 45.8694C346.27 45.5884 343.894 42.7568 344.175 39.545L347.239 4.5166Z" fill="white"/>
<path d="M288.21 4L291.807 38.9777C292.217 42.9593 288.589 46.1627 284.689 45.2636C281.547 44.5393 279.587 41.4053 280.311 38.2636L288.21 4Z" fill="white"/>
<path d="M378.228 4.51923L386.665 38.6541C387.626 42.5398 384.48 46.2175 380.492 45.8708C377.28 45.5915 374.903 42.7613 375.182 39.5492L378.228 4.51923Z" fill="white"/>
<path d="M316.976 4.34863L324.199 38.7611C325.021 42.6783 321.747 46.2423 317.774 45.7545C314.574 45.3616 312.298 42.4488 312.691 39.2487L316.976 4.34863Z" fill="white"/>
<path d="M410.461 3.25238L416.897 37.8204C417.63 41.7554 414.275 45.2438 410.315 44.6656C407.124 44.1999 404.916 41.2361 405.381 38.0458L410.461 3.25238Z" fill="white"/>
<path d="M443.21 7L446.807 41.9777C447.217 45.9593 443.589 49.1627 439.689 48.2636C436.547 47.5393 434.587 44.4053 435.311 41.2636L443.21 7Z" fill="white"/>
<path d="M474.21 8L477.807 42.9777C478.217 46.9593 474.589 50.1627 470.689 49.2636C467.547 48.5393 465.587 45.4053 466.311 42.2636L474.21 8Z" fill="white"/>
<path d="M505.21 10L508.807 44.9777C509.217 48.9593 505.589 52.1627 501.689 51.2636C498.547 50.5393 496.587 47.4053 497.311 44.2636L505.21 10Z" fill="white"/>
<path d="M536.21 15L539.807 49.9777C540.217 53.9593 536.589 57.1627 532.689 56.2636C529.547 55.5393 527.587 52.4053 528.311 49.2636L536.21 15Z" fill="white"/>
<path d="M564.946 15.3546L572.218 49.7566C573.046 53.6726 569.777 57.2413 565.803 56.7593C562.603 56.371 560.323 53.4615 560.711 50.2609L564.946 15.3546Z" fill="white"/>
<path d="M598.689 15.4106L606.378 49.722C607.253 53.6277 604.027 57.2357 600.048 56.8019C596.843 56.4524 594.528 53.5708 594.878 50.3656L598.689 15.4106Z" fill="white"/>
</svg>
