<?xml version="1.0" encoding="UTF-8"?>
<svg id="Layer_2" data-name="Layer 2" xmlns="http://www.w3.org/2000/svg" viewBox="0 0 1000 1000">
  <defs>
    <style>
      .cls-1, .cls-2 {
        opacity: .5;
      }

      .cls-3, .cls-4, .cls-2, .cls-5, .cls-6 {
        fill: #ccd2d6;
        stroke-width: 0px;
      }

      .cls-4 {
        opacity: .75;
      }

      .cls-5, .cls-7 {
        opacity: .25;
      }

      .cls-6 {
        opacity: .26;
      }
    </style>
  </defs>
  <g>
    <g>
      <path class="cls-5" d="m330.71,737.56c-3.99.33-7.91,1.61-11.39,3.81l-112.77,71.19c-14.74,9.31-34.26,1.18-38.04-15.85L57.35,296.52c-2.28-10.23,2.03-20.8,10.81-26.55l115.55-75.6c2.5-1.63,5.2-2.77,8-3.42l8.86,34.84c-4.98-.77-10.18.28-14.56,3.16l-86.41,56.53c-7.23,4.74-10.78,13.47-8.9,21.92l99.33,447.02c3.12,14.05,19.23,20.76,31.4,13.07l81.79-51.63c6.14-3.87,12.93-6.48,20.01-7.71l7.49,29.43Z"/>
      <path class="cls-5" d="m635.94,712.57l-73.98,89.38c-5.18,6.26-12.94,9.52-20.79,9.08l-9.01-34.95c6.81.72,13.67-1.97,18.17-7.42l69.48-83.94c1.45-.04,2.9-.1,4.35-.17l10,24.68c.48,1.2,1.08,2.32,1.78,3.34Z"/>
      <path class="cls-5" d="m659.58,154.77c-4.61.22-9.09,1.96-12.69,5.11l-202.41,176.82c-6.5,5.69-14.19,9.72-22.42,11.88l-7.53-29.23c3.65-.96,7.1-2.76,10.1-5.37l213.67-186.66c4-3.51,8.94-5.58,14.06-6.09l7.22,33.56Z"/>
      <path class="cls-6" d="m323.23,708.14c-7.08,1.23-13.87,3.84-20.01,7.71l-81.79,51.63c-12.17,7.68-28.28.98-31.4-13.07l-23.81-107.14-4.17-18.72-35.95-161.82-4.69-21.09-30.72-138.24c-1.88-8.45,1.67-17.18,8.9-21.92l86.41-56.53c4.38-2.88,9.58-3.92,14.56-3.16l40.28,158.37,5.98,23.54,35.77,140.61,5.77,22.69,34.87,137.14Z"/>
      <path class="cls-6" d="m709.22,385.55c-8.02-5.53-16.51-10.33-25.35-14.34-8.26-3.76-16.82-6.83-25.59-9.17-9.24-2.49-18.72-4.16-28.33-4.99-7.48-.65-15.04-.78-22.63-.38-6.84.35-13.7,1.15-20.55,2.4-6.41,1.16-12.8,2.71-19.15,4.68-4.46,1.38-8.9,2.96-13.3,4.74-41.5,16.81-72.39,48.68-88.91,86.75-3.76,8.63-6.77,17.58-8.99,26.75l-4.64-18.03-20.04-77.81-9.68-37.58c8.23-2.16,15.91-6.19,22.41-11.87l111.94-97.79,13.19-11.52,77.29-67.51c3.6-3.15,8.08-4.89,12.69-5.11l33.42,155.37,4.93,22.9,7.78,36.17,3.51,16.34Z"/>
      <path class="cls-6" d="m619.81,684.72l-69.48,83.94c-4.5,5.45-11.36,8.14-18.17,7.42l-37.23-144.55c31.92,34.82,77.66,54.29,124.88,53.19Z"/>
      <path class="cls-2" d="m541.17,811.03c-2.45-.13-4.9-.62-7.29-1.49l-192.44-70.53c-3.47-1.27-7.13-1.74-10.73-1.45l-7.49-29.43c3.13-.56,6.33-.84,9.54-.84,6.52,0,12.93,1.14,19.06,3.38l175.33,64.25c1.64.6,3.32.99,5,1.15l9.01,34.95Z"/>
      <path class="cls-2" d="m532.16,776.08c-1.68-.16-3.36-.55-5-1.15l-175.33-64.25c-6.13-2.24-12.54-3.38-19.06-3.38-3.22,0-6.41.28-9.54.84l-34.87-137.14-5.77-22.7-6.01-23.61-26.89-105.71-2.87-11.29-5.98-23.54h-.01l-40.27-158.37c2.93.45,5.77,1.53,8.34,3.24l49.11,32.68,26.92,17.91,92.45,61.5c9.11,6.06,19.72,9.26,30.67,9.26,4.76,0,9.47-.61,14.01-1.8l9.68,37.58,20.04,77.81,4.64,18.03c-.19.77-.37,1.53-.54,2.3-1.61,7.07-2.76,14.27-3.42,21.53-2.31,25.21,1.21,51.33,11.37,76.41,7.58,18.71,18.21,35.25,31.1,49.3l37.23,144.55Z"/>
      <path class="cls-2" d="m422.06,348.57c-4.54,1.18-9.25,1.8-14.01,1.8-10.95,0-21.56-3.2-30.67-9.26l-168.48-112.09c-2.57-1.71-5.41-2.79-8.33-3.24l-8.86-34.84c6.66-1.59,13.84-.41,19.76,3.53l182.63,121.5c6.16,4.1,13.6,5.18,20.43,3.37l7.53,29.23Z"/>
      <path class="cls-2" d="m910.89,626.69l-143.65-42.47c3.89-9.28,6.95-18.91,9.1-28.78l101.46,30c15.14,4.47,29.54-8.89,26.22-24.32l-23.05-107.02-4.98-23.09-10.53-48.88-5-23.24h-.01l-29.22-135.66c-1.54-7.11-6.66-12.9-13.53-15.28l-150.32-52.06c-2.56-.89-5.2-1.25-7.8-1.12l-7.23-33.56c3.58-.36,7.25.05,10.77,1.27l178.17,61.71c8.32,2.88,14.53,9.89,16.39,18.49l84.99,394.55c4.02,18.69-13.44,34.88-31.78,29.46Z"/>
      <path class="cls-3" d="m193.17,819.5c-3.66,0-7.35-.73-10.89-2.21-8.59-3.58-14.67-10.84-16.69-19.92L54.42,297.17c-2.53-11.38,2.33-23.32,12.09-29.71l115.55-75.6c2.78-1.81,5.8-3.1,8.96-3.84l2.86-.66,10.7,42.08-4.48-.69c-4.37-.68-8.79.29-12.45,2.7l-86.42,56.54c-6.16,4.03-9.22,11.57-7.62,18.75l99.33,447.02c1.27,5.73,5.11,10.31,10.54,12.57,5.42,2.26,11.37,1.75,16.33-1.38l81.79-51.63c6.5-4.09,13.59-6.82,21.1-8.13l2.74-.48,9.05,35.56-3.54.29c-3.54.29-7,1.45-10.03,3.36l-112.77,71.19c-4.62,2.92-9.78,4.39-14.99,4.39Zm-3.6-624.77c-1.47.56-2.88,1.28-4.23,2.16l-115.54,75.6c-7.69,5.03-11.51,14.43-9.52,23.39l111.16,500.2c1.59,7.15,6.38,12.87,13.14,15.68,6.76,2.81,14.18,2.18,20.37-1.72l112.77-71.19c2.84-1.79,5.99-3.06,9.26-3.75l-5.96-23.44c-5.73,1.31-11.17,3.57-16.21,6.75l-81.79,51.63c-6.63,4.19-14.59,4.86-21.84,1.85-7.25-3.02-12.39-9.14-14.09-16.8l-99.33-447.02c-2.14-9.61,1.96-19.69,10.19-25.08l86.41-56.53c3.68-2.42,7.93-3.75,12.28-3.88l-7.07-27.82Z"/>
      <path class="cls-3" d="m542.56,814.07c-.52,0-1.04-.01-1.56-.04l-2.19-.12-10.64-41.26,4.3.45c5.94.63,11.74-1.75,15.54-6.35l70.35-84.99,1.36-.04c1.43-.04,2.86-.1,4.29-.17l2.13-.1,10.8,26.65c.4.99.89,1.92,1.47,2.77l1.28,1.87-1.44,1.74-73.98,89.38c-5.35,6.46-13.37,10.21-21.71,10.21Zm-6.51-34.93l7.45,28.91c6.23-.27,12.14-3.17,16.15-8.01l72.63-87.75c-.33-.63-.63-1.28-.9-1.95l-9.2-22.7c-.31.01-.61.02-.92.04l-68.62,82.9c-4.18,5.06-10.18,8.11-16.59,8.56Z"/>
      <path class="cls-3" d="m419.91,352.24l-9.03-35.03,2.88-.76c3.3-.87,6.29-2.47,8.89-4.73l213.67-186.66c4.43-3.88,9.87-6.24,15.73-6.82l2.67-.27,8.53,39.64-3.53.17c-4,.19-7.85,1.74-10.86,4.37l-202.41,176.82c-6.75,5.9-14.92,10.23-23.63,12.52l-2.92.76Zm-1.77-30.91l6.05,23.49c6.73-2.19,13.01-5.74,18.31-10.38l202.42-176.82c3.14-2.74,6.97-4.61,11.04-5.42l-5.94-27.58c-3.6.8-6.93,2.48-9.75,4.94l-213.67,186.66c-2.54,2.22-5.38,3.93-8.46,5.1Z"/>
      <path class="cls-3" d="m545.1,814.24l-4.08-.21c-2.78-.15-5.53-.71-8.16-1.66l-192.45-70.53c-3.04-1.11-6.22-1.54-9.45-1.28l-2.52.2-8.91-35.01,3.18-.57c3.29-.59,6.68-.88,10.07-.88,6.87,0,13.63,1.2,20.09,3.56l175.33,64.25c1.39.51,2.82.84,4.26.98l2.09.2,10.55,40.94Zm-212.07-79.76c3.22.03,6.39.6,9.44,1.72l192.45,70.53c.73.27,1.47.49,2.23.68l-7.38-28.65c-1.23-.24-2.45-.58-3.63-1.01l-175.33-64.25c-5.8-2.12-11.87-3.19-18.03-3.19-1.95,0-3.89.11-5.81.33l6.07,23.85Z"/>
      <path class="cls-3" d="m408.05,353.37c-11.54,0-22.72-3.38-32.33-9.77l-168.48-112.09c-2.17-1.44-4.57-2.37-7.13-2.77l-1.96-.3-10.1-39.71,2.96-.71c7.56-1.8,15.62-.37,22.11,3.95l182.63,121.5c5.29,3.52,11.85,4.6,18,2.96l2.92-.77,9.03,35.05-2.89.76c-4.82,1.26-9.79,1.9-14.77,1.9Zm-205.04-130.16c2.69.65,5.22,1.76,7.55,3.31l168.48,112.09c8.62,5.73,18.65,8.76,29.01,8.76,3.47,0,6.93-.35,10.34-1.03l-6.05-23.48c-6.91,1.06-14.02-.48-19.9-4.39l-182.63-121.5c-4.25-2.83-9.35-4.08-14.38-3.61l7.59,29.85Z"/>
      <path class="cls-3" d="m918.13,630.75c-2.69,0-5.41-.39-8.09-1.18l-146.86-43.42,1.29-3.09c3.84-9.16,6.84-18.67,8.93-28.26l.69-3.15,104.55,30.92c6.08,1.79,12.49.29,17.14-4.02,4.65-4.31,6.63-10.59,5.3-16.79l-72.79-337.89c-1.31-6.04-5.75-11.06-11.58-13.08l-150.32-52.06c-2.16-.75-4.4-1.07-6.67-.96l-2.54.13-8.47-39.33,3.34-.34c4.09-.41,8.15.07,12.05,1.42l178.17,61.71c9.25,3.2,16.27,11.13,18.34,20.69l84.99,394.55c2.11,9.82-1.03,19.77-8.4,26.6-5.32,4.93-12.09,7.55-19.08,7.55Zm-6.39-6.93c7.58,2.24,15.58.37,21.39-5.01,5.8-5.38,8.27-13.21,6.61-20.94l-84.99-394.55c-1.63-7.53-7.16-13.77-14.44-16.29l-178.17-61.71c-1.99-.69-4.03-1.09-6.09-1.2l5.96,27.67c2.16.13,4.29.55,6.36,1.27l150.32,52.06c7.8,2.7,13.73,9.4,15.48,17.48l28.71,133.3.52,2.37,43.56,202.23c1.78,8.29-.86,16.69-7.08,22.45-6.22,5.77-14.79,7.78-22.92,5.38l-98.4-29.09c-1.86,7.8-4.3,15.53-7.28,23.06l140.47,41.53Z"/>
      <path class="cls-2" d="m877.8,585.44l-101.46-30c6.8-31.17,4.61-64.65-8.28-96.45-10.13-25.01-25.73-46.17-44.86-62.65l-12.68-4.73-1.3-6.06-3.51-16.34-7.78-36.17-4.93-22.9-33.42-155.37c2.6-.13,5.24.23,7.8,1.12l150.32,52.06c6.87,2.38,11.99,8.17,13.53,15.28l29.23,135.66,5,23.24,10.53,48.88,4.98,23.09,23.05,107.02c3.32,15.43-11.08,28.79-26.22,24.32Z"/>
      <path class="cls-3" d="m210.38,773.72c-3.09,0-6.2-.62-9.19-1.86-7.25-3.02-12.39-9.14-14.09-16.8l-99.33-447.02c-2.14-9.61,1.96-19.69,10.19-25.08l86.41-56.53c4.9-3.23,10.82-4.51,16.66-3.61l1.96.3,123.95,487.42-3.19.55c-6.73,1.17-13.1,3.62-18.93,7.29l-81.79,51.63c-3.9,2.46-8.25,3.71-12.65,3.71Zm-13-545.19c-3.45,0-6.82,1-9.72,2.91l-86.42,56.54c-6.16,4.03-9.22,11.57-7.62,18.75l71.36,321.15,27.98,125.87c1.27,5.73,5.11,10.31,10.54,12.57,5.42,2.26,11.37,1.75,16.33-1.38l81.79-51.63c5.57-3.51,11.59-6.02,17.93-7.49l-39.86-156.78-35.76-140.61-5.98-23.54-39.76-156.34c-.26-.01-.53-.02-.79-.02Z"/>
      <path class="cls-3" d="m456.51,494.37l-38.1-147.95,2.89-.76c7.81-2.05,15.14-5.93,21.2-11.23l125.13-109.31,77.29-67.51c4.02-3.51,9.17-5.59,14.52-5.85l2.54-.12.53,2.49,51.23,238.17-6.22-4.29c-7.84-5.41-16.21-10.14-24.89-14.08-8.11-3.69-16.56-6.72-25.12-9-9.05-2.44-18.41-4.09-27.81-4.9-7.34-.64-14.81-.76-22.21-.37-6.7.34-13.48,1.13-20.17,2.36-6.35,1.15-12.68,2.69-18.8,4.59-4.39,1.36-8.79,2.92-13.06,4.66-39.38,15.95-70.37,46.19-87.28,85.16-3.69,8.46-6.66,17.29-8.83,26.26l-2.83,11.68Zm-30.82-143.73l30.85,119.76c1.75-5.56,3.8-11.03,6.12-16.36,17.54-40.42,49.69-71.79,90.53-88.33,4.43-1.79,8.99-3.42,13.54-4.83,6.35-1.97,12.91-3.57,19.5-4.77,6.94-1.27,13.98-2.09,20.93-2.44,7.68-.41,15.43-.27,23.04.39,9.75.84,19.46,2.55,28.85,5.08,8.88,2.37,17.65,5.51,26.05,9.34,6.75,3.06,13.33,6.6,19.64,10.54l-47.53-220.96c-3.08.59-5.99,2-8.36,4.07l-90.48,79.03-111.94,97.79c-6.01,5.25-13.13,9.25-20.75,11.68Z"/>
      <path class="cls-3" d="m534.36,779.2c-.83,0-1.67-.04-2.52-.13l-2.07-.22-40.74-158.19,8.11,8.85c31.42,34.27,76.14,53.31,122.6,52.22l6.57-.15-73.67,89.01c-4.54,5.5-11.24,8.62-18.28,8.62Zm-33.73-137.58l33.89,131.58c5.2-.05,10.14-2.37,13.5-6.45l65.39-79c-42.12-.64-82.38-17.16-112.79-46.12Z"/>
      <path class="cls-3" d="m536.13,779.47l-4.26-.41c-1.92-.18-3.86-.63-5.75-1.32l-175.33-64.25c-5.81-2.12-11.87-3.2-18.03-3.2-3.04,0-6.07.27-9.01.79l-2.75.49-124.47-489.46,4.48.69c3.43.53,6.64,1.77,9.55,3.71l76.03,50.59,92.45,61.5c8.61,5.73,18.64,8.76,29.01,8.76,4.48,0,8.94-.57,13.25-1.7l2.91-.76,35.3,137.07-.18.73c-.18.75-.36,1.48-.52,2.23-1.59,6.98-2.72,14.09-3.36,21.16-2.35,25.68,1.4,50.92,11.16,75.01,7.28,17.97,17.55,34.25,30.53,48.4l.51.55.19.73,38.3,148.69Zm-203.36-75.17c6.86,0,13.62,1.2,20.09,3.56l175.17,64.19-35.81-139.05c-13.22-14.55-23.71-31.25-31.16-49.65-10.12-24.99-14.02-51.17-11.58-77.81.67-7.33,1.84-14.7,3.48-21.92.12-.53.24-1.07.37-1.61l-33.44-129.85c-3.88.8-7.85,1.21-11.84,1.21-11.55,0-22.73-3.38-32.33-9.76l-119.37-79.41-49.11-32.68c-.8-.53-1.62-.99-2.48-1.38l38.4,151.01.58,2.26,81.72,321.35c2.41-.31,4.86-.46,7.3-.46Z"/>
      <path class="cls-3" d="m883.77,589.31c-2.27,0-4.56-.33-6.82-.99h0l-104.13-30.79.59-2.73c6.92-31.74,4.11-64.48-8.13-94.68-9.66-23.85-24.34-44.42-43.63-61.16l-13.72-5.12-17.86-83.07-34.16-158.82,3.53-.18c3.04-.15,6.05.28,8.93,1.28l150.32,52.06c7.8,2.7,13.73,9.4,15.48,17.48l29.23,135.66,43.56,202.23c1.78,8.29-.86,16.69-7.08,22.45-4.49,4.16-10.21,6.37-16.1,6.37Zm-5.12-6.75c6.08,1.79,12.49.29,17.14-4.02,4.65-4.31,6.63-10.59,5.3-16.79l-43.56-202.23-29.23-135.66c-1.31-6.04-5.75-11.06-11.58-13.08l-150.32-52.06c-1-.35-2.03-.61-3.06-.77l49.77,231.42,11.64,4.34.41.35c20.22,17.42,35.59,38.89,45.68,63.8,12.35,30.46,15.45,63.41,9,95.48l98.81,29.22Z"/>
      <path class="cls-2" d="m387.29,486.62l22.78,113.68c1.01,5.03-3.79,9.28-8.67,7.68l-111.56-36.68c-.49-.16-.99-.26-1.48-.3-1.47-.14-2.95.22-4.22,1.02l-117.93,75.24-4.16-18.72,118.91-79.45c.51-.33,1.06-.6,1.63-.79,1.34-.45,2.82-.45,4.19,0l87.09,28.63c4.88,1.61,9.67-2.65,8.67-7.69l-20.79-103.73c-.4-2.06-1.77-3.82-3.68-4.72l-111.25-53.1-.17-.08c-1.88-.89-4.09-.87-5.96.09l-114.59,59.02-4.69-21.09,118.93-61.25c.17-.08.33-.16.49-.23h.01c1.74-.73,3.73-.67,5.46.14l45.51,21.72c5.31,2.54,11.08-2.51,9.28-8.1l-42.83-132.99c-.36-1.12-.43-2.21-.25-3.22l26.92,17.91,45.97,142.73c.57,1.75,1.83,3.19,3.49,4l121.28,57.86c.07.03.14.07.21.09-1.61,7.07-2.76,14.27-3.42,21.53l-55.71-26.57c-4.98-2.38-10.54,1.95-9.46,7.37Z"/>
      <path class="cls-2" d="m607.32,356.67c-6.84.35-13.7,1.15-20.55,2.4l-30.36-120.15h0s13.19-11.53,13.19-11.53c1.11.84,1.98,2.05,2.4,3.54l35.32,125.74Z"/>
      <path class="cls-2" d="m865.46,382.13c-.71.04-1.44-.06-2.2-.28l-162.63-48.58c-.89-.27-1.81-.33-2.7-.23-1.17.14-2.3.58-3.26,1.31l-35.28,26.65c-.42.32-.79.67-1.11,1.04-9.24-2.49-18.72-4.16-28.33-4.99l60.55-45.74c.75-.57,1.6-.98,2.5-1.17,1.12-.27,2.31-.25,3.44.09l164.01,48.66h.01l5,23.24Z"/>
      <path class="cls-2" d="m880.97,454.1c-1.15.25-2.42.18-3.67-.3l-154.1-57.46-12.68-4.73-1.3-6.06c-8.02-5.53-16.51-10.33-25.35-14.34l21.84-2,2.1-.2c1.01-.09,2.02.05,2.96.4l165.22,61.6,4.98,23.09Z"/>
      <g>
        <path class="cls-6" d="m276.58,524.69c-1.61.14-3.2.72-4.56,1.71l-87.68,63.47c-5.4,3.91-13.02.98-14.42-5.54l-22.98-107.56c-.87-4.11,1.14-8.29,4.9-10.17l93.45-46.68c1.38-.68,2.9-1.01,4.4-.95l26.9,105.72Z"/>
        <path class="cls-2" d="m330.48,546.32l-49.45-20.94c-1.43-.6-2.96-.84-4.45-.68l-26.9-105.72c1.31.03,2.62.36,3.84.96l72.96,36.47c2.65,1.34,4.5,3.85,4.97,6.79l11.72,73.18c1.14,7.14-6.02,12.76-12.7,9.94Z"/>
        <path class="cls-2" d="m330.69,603.02l131.88,36.15c3.01.83,5.35,3.22,6.1,6.25l20.06,80.86c1.7,6.85-5.1,12.74-11.64,10.08l-130.14-52.94c-2.32-.94-4.12-2.85-4.92-5.22l-21.8-64.07c-2.23-6.56,3.78-12.94,10.46-11.11Z"/>
        <path class="cls-6" d="m567.62,363.75c-4.46,1.38-8.9,2.96-13.3,4.74-41.5,16.81-72.39,48.68-88.91,86.75l-8.96,6.93c-1.38,1.07-3,1.67-4.67,1.79l-20.04-77.81c1.79-.13,3.54-.82,4.98-2.02l103.73-87.59c4.99-4.21,12.68-1.58,14.02,4.82l13.15,62.39Z"/>
        <path class="cls-2" d="m451.78,463.96c-1.51.1-3.05-.19-4.46-.88l-96.64-48.06c-1.98-.99-3.52-2.69-4.27-4.78l-23.6-64.76c-2.72-7.49,5.27-14.35,12.26-10.54l91.94,50.18c1.49.81,3.13,1.15,4.74,1.03l20.04,77.81Z"/>
        <path class="cls-6" d="m717.88,191.23l86.57,28.86c3.05,1.02,5.36,3.53,6.11,6.65l20.62,85.33c1.72,7.11-5.06,13.34-12,11.03l-102.65-34.22c-3.1-1.03-5.43-3.61-6.14-6.8l-15.7-69.89c-3.06-13.63,9.94-25.39,23.19-20.97Z"/>
      </g>
    </g>
    <g>
      <path class="cls-2" d="m769.84,868.61l-22.19,8.99c-9.15,3.71-19.57-.7-23.28-9.85l-61.17-151.01,55.32-22.4,61.18,150.99c3.7,9.15-.71,19.57-9.86,23.28Z"/>
      <path class="cls-3" d="m724.29,692l-5.77,2.34-55.32,22.4-5.77,2.34c-9.15,3.71-19.57-.7-23.27-9.85l-9.99-24.67c17.86-.89,35.88-4.74,53.4-11.84,17.51-7.09,33.13-16.87,46.58-28.66l10,24.66c3.7,9.15-.71,19.57-9.86,23.28Z"/>
      <path class="cls-3" d="m740.93,881.92c-2.76,0-5.51-.55-8.13-1.66-5.13-2.17-9.12-6.21-11.21-11.38l-62.3-153.79,60.88-24.65,62.31,153.77c4.31,10.67-.85,22.87-11.51,27.19h0l-22.19,8.99c-2.53,1.03-5.19,1.54-7.84,1.54Zm-73.82-163.53l60.04,148.23c1.49,3.68,4.33,6.56,7.99,8.11,3.66,1.55,7.7,1.58,11.38.08l22.19-8.99c7.6-3.08,11.28-11.77,8.21-19.38l-60.05-148.21-49.76,20.15Zm102.73,150.22h0,0Z"/>
      <path class="cls-3" d="m650.71,723.4c-2.76,0-5.52-.55-8.13-1.66-5.13-2.17-9.11-6.22-11.2-11.38l-11.57-28.58,4.22-.21c17.96-.9,35.6-4.81,52.42-11.62,16.81-6.81,32.2-16.27,45.73-28.13l3.17-2.78,11.59,28.57c4.31,10.67-.85,22.86-11.51,27.19l-66.86,27.08c-2.53,1.03-5.19,1.54-7.85,1.54Zm-22.2-36.11l8.43,20.81c1.49,3.68,4.32,6.56,7.98,8.11,3.66,1.55,7.7,1.58,11.39.09l66.86-27.08c7.6-3.08,11.28-11.77,8.21-19.38l-8.43-20.8c-13.25,11.04-28.11,19.93-44.24,26.46-16.14,6.54-33,10.5-50.18,11.79Zm95.78,4.71h0,0Z"/>
      <path class="cls-4" d="m768.06,458.99c-34.04-84.02-129.73-124.53-213.74-90.5-84.01,34.03-124.53,129.73-90.49,213.74,26.94,66.5,92.5,105.74,160.34,102.33,17.86-.89,35.88-4.74,53.4-11.84,17.51-7.09,33.13-16.87,46.58-28.66,51.08-44.76,70.85-118.58,43.91-185.07Zm-77.89,148.98c-.57.49-1.14.96-1.72,1.43-.58.48-1.16.95-1.75,1.4-.54.43-1.09.86-1.65,1.27-.1.08-.2.16-.31.23-.52.4-1.04.78-1.57,1.16-.05.04-.11.08-.16.11-.54.4-1.08.78-1.63,1.15-.08.07-.16.12-.24.17-.57.4-1.15.8-1.74,1.18,0,0-.03.03-.05.03-.47.32-.95.63-1.43.93-.24.16-.48.32-.72.47-.53.33-1.05.66-1.59.98-.03.02-.07.05-.11.06-.5.31-1,.61-1.51.9-.8.48-1.61.94-2.42,1.38-.51.29-1.03.57-1.55.84-.3.17-.61.33-.92.49-1.9,1-3.84,1.94-5.81,2.83-1.42.65-2.86,1.26-4.31,1.85-.73.3-1.47.59-2.21.87-.63.24-1.26.47-1.9.7-.15.06-.31.12-.47.17-.45.16-.9.32-1.35.47-.47.17-.94.33-1.42.48-.33.11-.67.22-1.01.33-.76.24-1.53.48-2.29.7-.74.22-1.47.43-2.2.62-1.73.49-3.45.92-5.19,1.3-.43.1-.86.2-1.29.28-.6.14-1.19.26-1.79.37-.14.03-.28.06-.42.08-.67.13-1.34.26-2.01.37-1.77.31-3.55.57-5.32.79-.61.08-1.21.16-1.81.22-.22.02-.44.05-.65.07-.6.06-1.2.12-1.8.17-.18,0-.36.03-.54.04-.54.05-1.08.09-1.62.12-.08.01-.16.02-.23.02-48,3.16-94.69-24.35-113.73-71.36-23.77-58.67,4.52-125.49,63.19-149.26,58.65-23.76,125.48,4.53,149.25,63.2,19.04,47,4.65,99.26-32,130.39Z"/>
      <path class="cls-3" d="m768.06,458.99c-34.04-84.02-129.73-124.53-213.74-90.5-84.01,34.03-124.53,129.73-90.49,213.74,26.94,66.5,92.5,105.74,160.34,102.33,17.86-.89,35.88-4.74,53.4-11.84,17.51-7.09,33.13-16.87,46.58-28.66,51.08-44.76,70.85-118.58,43.91-185.07Zm-77.89,148.98c-.57.49-1.14.96-1.72,1.43-.58.48-1.16.95-1.75,1.4-.54.43-1.09.86-1.65,1.27-.1.08-.2.16-.31.23-.52.4-1.04.78-1.57,1.16-.05.04-.11.08-.16.11-.54.4-1.08.78-1.63,1.15-.08.07-.16.12-.24.17-.57.4-1.15.8-1.74,1.18,0,0-.03.03-.05.03-.47.32-.95.63-1.43.93-.24.16-.48.32-.72.47-.53.33-1.05.66-1.59.98-.03.02-.07.05-.11.06-.5.31-1,.61-1.51.9-.8.48-1.61.94-2.42,1.38-.51.29-1.03.57-1.55.84-.3.17-.61.33-.92.49-1.9,1-3.84,1.94-5.81,2.83-1.42.65-2.86,1.26-4.31,1.85-.73.3-1.47.59-2.21.87-.63.24-1.26.47-1.9.7-.15.06-.31.12-.47.17-.45.16-.9.32-1.35.47-.47.17-.94.33-1.42.48-.33.11-.67.22-1.01.33-.76.24-1.53.48-2.29.7-.74.22-1.47.43-2.2.62-1.73.49-3.45.92-5.19,1.3-.43.1-.86.2-1.29.28-.6.14-1.19.26-1.79.37-.14.03-.28.06-.42.08-.67.13-1.34.26-2.01.37-1.77.31-3.55.57-5.32.79-.61.08-1.21.16-1.81.22-.22.02-.44.05-.65.07-.6.06-1.2.12-1.8.17-.18,0-.36.03-.54.04-.54.05-1.08.09-1.62.12-.08.01-.16.02-.23.02-48,3.16-94.69-24.35-113.73-71.36-23.77-58.67,4.52-125.49,63.19-149.26,58.65-23.76,125.48,4.53,149.25,63.2,19.04,47,4.65,99.26-32,130.39Z"/>
      <path class="cls-6" d="m690.17,607.97c-9.08,7.72-19.54,14.14-31.19,18.86-11.66,4.72-23.63,7.39-35.52,8.17-48,3.16-94.69-24.35-113.73-71.36-23.77-58.67,4.52-125.49,63.19-149.26,58.65-23.76,125.48,4.53,149.25,63.2,19.04,47,4.65,99.26-32,130.39Z"/>
      <path class="cls-4" d="m679.09,559.22c3.21,3.21,3.21,8.41,0,11.62l-17.08,17.08c-3.21,3.21-8.41,3.21-11.62,0l-35.02-35.03-35.03,35.03c-3.21,3.21-8.4,3.21-11.62,0l-17.06-17.08c-3.22-3.21-3.22-8.42,0-11.62l35.02-35.02-35.02-35.03c-3.22-3.21-3.22-8.4,0-11.62l17.06-17.06c3.22-3.22,8.42-3.22,11.62,0l35.03,35.02,35.02-35.02c3.21-3.22,8.42-3.22,11.62,0l17.08,17.06c3.21,3.22,3.21,8.41,0,11.62l-35.03,35.03,35.03,35.02Z"/>
      <path class="cls-3" d="m656.2,593.33c-2.87,0-5.75-1.09-7.93-3.28l-32.9-32.91-32.91,32.91c-4.36,4.37-11.48,4.37-15.86,0l-17.07-17.08c-2.12-2.11-3.3-4.93-3.3-7.93s1.17-5.82,3.3-7.94l32.89-32.89-32.9-32.91c-2.12-2.11-3.29-4.92-3.3-7.92,0-3,1.17-5.82,3.3-7.95l17.06-17.06c2.12-2.13,4.94-3.3,7.94-3.3h.01c2.99,0,5.8,1.18,7.92,3.3l32.91,32.89,32.9-32.9c2.11-2.12,4.93-3.3,7.93-3.3h0c3,0,5.82,1.17,7.94,3.3l17.07,17.06c4.37,4.39,4.37,11.5,0,15.87l-32.91,32.91,32.91,32.9c4.37,4.37,4.37,11.49,0,15.87l-17.08,17.08c-2.19,2.19-5.06,3.28-7.93,3.28Zm-40.83-44.68l37.14,37.15c2.03,2.03,5.35,2.04,7.38,0l17.08-17.08c2.03-2.04,2.03-5.35,0-7.38l-37.15-37.14,37.15-37.15c2.03-2.03,2.03-5.34,0-7.39l-17.07-17.06c-.99-.99-2.3-1.54-3.69-1.54h0c-1.39,0-2.7.54-3.69,1.53l-37.14,37.14-37.15-37.14c-.99-.99-2.29-1.54-3.68-1.54h0c-1.39,0-2.7.55-3.7,1.54l-17.06,17.06c-.99.99-1.54,2.31-1.54,3.7,0,1.39.55,2.69,1.53,3.68l37.14,37.16-37.14,37.14c-.99.99-1.54,2.3-1.54,3.69s.54,2.7,1.53,3.69l17.07,17.08c2.04,2.03,5.35,2.03,7.38,0l37.15-37.15Z"/>
    </g>
    <g class="cls-1">
      <circle class="cls-3" cx="343.94" cy="798.76" r="13.22"/>
      <circle class="cls-3" cx="425.76" cy="834.47" r="21.39"/>
      <circle class="cls-3" cx="391.46" cy="249.35" r="25.1"/>
      <circle class="cls-3" cx="455.64" cy="240.19" r="8.49"/>
      <circle class="cls-3" cx="799.34" cy="652.42" r="11.09"/>
      <circle class="cls-3" cx="757.19" cy="690.42" r="5.65"/>
    </g>
    <g>
      <path class="cls-3" d="m316.79,681.28c-1.37,0-2.61-.95-2.92-2.34-1.35-5.99-29.04-113.46-55.82-217.39-22.76-88.34-44.26-171.79-46.88-182.42-.4-1.61.59-3.23,2.2-3.63,1.61-.39,3.23.59,3.63,2.2,2.61,10.6,24.1,94.03,46.86,182.35,26.79,103.98,54.49,211.49,55.86,217.57.36,1.62-.65,3.22-2.27,3.59-.22.05-.44.07-.66.07Z"/>
      <path class="cls-3" d="m834.48,354.19c-.28,0-.56-.04-.84-.12l-141.48-41.05c-1.59-.46-2.51-2.13-2.04-3.72.46-1.59,2.12-2.51,3.72-2.05l141.48,41.05c1.59.46,2.51,2.13,2.04,3.72-.38,1.31-1.58,2.17-2.88,2.17Z"/>
    </g>
  </g>
  <g class="cls-7">
    <path class="cls-3" d="m137.53,224.58l46.18-30.21c2.49-1.63,5.2-2.78,8-3.43,6.66-1.59,13.83-.4,19.75,3.53l51.15,34.03c24.74.18,47.13,10.29,63.38,26.53,8.11,8.11,14.69,17.75,19.27,28.45l48.84,32.49c6.17,4.09,13.61,5.17,20.44,3.36,3.64-.96,7.1-2.76,10.09-5.37l213.68-186.66c2-1.75,4.23-3.15,6.6-4.17,2.38-1.03,4.89-1.68,7.45-1.93,3.58-.36,7.25.05,10.77,1.27l178.17,61.71c8.32,2.88,14.53,9.89,16.39,18.49l4.38,20.34c34.74-12.68,59.53-46.01,59.53-85.14,0-25.02-10.14-47.66-26.53-64.06-16.4-16.4-39.06-26.54-64.07-26.54H163.92c-50.04,0-90.6,40.57-90.6,90.6,0,25.03,10.14,47.67,26.53,64.07,10.38,10.37,23.27,18.24,37.68,22.62Zm318.11,7.12c4.69,0,8.49,3.8,8.49,8.49s-3.8,8.49-8.49,8.49-8.49-3.8-8.49-8.49,3.8-8.49,8.49-8.49Zm-64.18-7.45c13.86,0,25.1,11.23,25.1,25.1s-11.24,25.1-25.1,25.1-25.1-11.24-25.1-25.1,11.24-25.1,25.1-25.1Z"/>
    <path class="cls-3" d="m89.05,590.89c.52.02,1.04.02,1.56.02h32.17l-40.19-180.85C36.3,414.12,0,452.97,0,500.3c0,25.03,10.14,47.67,26.53,64.07,16.05,16.04,38.12,26.11,62.52,26.51Z"/>
    <path class="cls-3" d="m902.27,409.7l37.88,175.85c34.9-12.59,59.85-46,59.85-85.24,0-25.02-10.14-47.66-26.53-64.06-16.4-16.4-39.06-26.54-64.07-26.54h-7.12Z"/>
    <path class="cls-3" d="m919.71,772.1c-3.39-.39-6.83-.59-10.31-.59h-140.06c-7.54-.85-14.8-2.65-21.67-5.24l32.04,79.06c3.7,9.15-.71,19.57-9.86,23.28l-22.19,8.99c-9.15,3.71-19.57-.7-23.28-9.85l-61.17-151.01-5.77,2.34c-7.96,3.22-16.87.31-21.49-6.51l-73.98,89.38c-4.87,5.89-12.02,9.12-19.38,9.12-.47,0-.94-.01-1.41-.04-2.45-.13-4.9-.61-7.29-1.48l-192.44-70.54c-3.47-1.26-7.13-1.74-10.73-1.45-3.99.33-7.9,1.62-11.38,3.81l-112.78,71.19c-14.74,9.31-34.25,1.19-38.04-15.84l-5.6-25.21h-72.3c-3.48,0-6.93.2-10.31.59C35.1,777.21,0,815.56,0,862.11c0,25.02,10.14,47.66,26.53,64.06,16.4,16.4,39.06,26.54,64.07,26.54h818.79c50.04,0,90.6-40.57,90.6-90.6,0-25.03-10.14-47.67-26.53-64.07-14.11-14.1-32.86-23.58-53.76-25.95Zm-575.77,39.88c-7.31,0-13.23-5.92-13.23-13.22s5.92-13.22,13.23-13.22,13.22,5.92,13.22,13.22-5.92,13.22-13.22,13.22Zm81.82,43.88c-11.81,0-21.39-9.58-21.39-21.39s9.58-21.39,21.39-21.39,21.39,9.58,21.39,21.39-9.57,21.39-21.39,21.39Z"/>
    <path class="cls-3" d="m763.57,592.32c4.73-.85,9.58-1.33,14.53-1.41h11.77l-22.62-6.69c-1.15,2.73-2.38,5.43-3.67,8.1Z"/>
  </g>
</svg>