<svg width="664" height="9" viewBox="0 0 664 9" fill="none" xmlns="http://www.w3.org/2000/svg">
<ellipse cx="10" cy="1" rx="10" ry="8" fill="#E7EBEE"/>
<ellipse cx="38" cy="1" rx="10" ry="8" fill="#E7EBEE"/>
<ellipse cx="66" cy="1" rx="10" ry="8" fill="#E7EBEE"/>
<ellipse cx="94" cy="1" rx="10" ry="8" fill="#E7EBEE"/>
<ellipse cx="122" cy="1" rx="10" ry="8" fill="#E7EBEE"/>
<ellipse cx="150" cy="1" rx="10" ry="8" fill="#E7EBEE"/>
<ellipse cx="178" cy="1" rx="10" ry="8" fill="#E7EBEE"/>
<ellipse cx="206" cy="1" rx="10" ry="8" fill="#E7EBEE"/>
<ellipse cx="234" cy="1" rx="10" ry="8" fill="#E7EBEE"/>
<ellipse cx="262" cy="1" rx="10" ry="8" fill="#E7EBEE"/>
<ellipse cx="290" cy="1" rx="10" ry="8" fill="#E7EBEE"/>
<ellipse cx="318" cy="1" rx="10" ry="8" fill="#E7EBEE"/>
<ellipse cx="346" cy="1" rx="10" ry="8" fill="#E7EBEE"/>
<ellipse cx="374" cy="1" rx="10" ry="8" fill="#E7EBEE"/>
<ellipse cx="402" cy="1" rx="10" ry="8" fill="#E7EBEE"/>
<ellipse cx="430" cy="1" rx="10" ry="8" fill="#E7EBEE"/>
<ellipse cx="458" cy="1" rx="10" ry="8" fill="#E7EBEE"/>
<ellipse cx="486" cy="1" rx="10" ry="8" fill="#E7EBEE"/>
<ellipse cx="514" cy="1" rx="10" ry="8" fill="#E7EBEE"/>
<ellipse cx="542" cy="1" rx="10" ry="8" fill="#E7EBEE"/>
<ellipse cx="570" cy="1" rx="10" ry="8" fill="#E7EBEE"/>
<ellipse cx="598" cy="1" rx="10" ry="8" fill="#E7EBEE"/>
<ellipse cx="626" cy="1" rx="10" ry="8" fill="#E7EBEE"/>
<ellipse cx="654" cy="1" rx="10" ry="8" fill="#E7EBEE"/>
</svg>
